HIERARCHY
ROOT Hips
{
	OFFSET 0.000000 83.214638 0.000000
	CHANNELS 6 Xposition Yposition Zposition Xrotation Yrotation Zrotation
	JOINT Pelvis
	{
		OFFSET 0.000000 0.000000 0.000000
		CHANNELS 3 Xrotation Yrotation Zrotation
		JOINT LeftUpLeg
		{
			OFFSET 8.479700 -4.795502 -0.379100
			CHANNELS 3 Xrotation Yrotation Zrotation
			JOINT LeftLeg
			{
				OFFSET 0.024144 -32.555107 0.112900
				CHANNELS 3 Xrotation Yrotation Zrotation
				JOINT LeftFoot
				{
					OFFSET -0.024144 -32.638630 -3.012600
					CHANNELS 3 Xrotation Yrotation Zrotation
					JOINT LeftToeBase
					{
						OFFSET 0.970200 -13.225400 11.864200
						CHANNELS 3 Xrotation Yrotation Zrotation
						End Site
						{
							OFFSET 0.000000 12.319262 0.000000
						}
					}
					JOINT LFootTongue
					{
						OFFSET 1.142400 -1.059800 6.665200
						CHANNELS 3 Xrotation Yrotation Zrotation
						End Site
						{
							OFFSET 0.000000 12.319262 0.000000
						}
					}
				}
				JOINT LeftPantLeg
				{
					OFFSET 0.918482 -16.533964 -2.284700
					CHANNELS 3 Xrotation Yrotation Zrotation
					End Site
					{
						OFFSET 0.350399 24.744368 0.000000
					}
				}
			}
		}
		JOINT RightUpLeg
		{
			OFFSET -8.479700 -4.795502 -0.379100
			CHANNELS 3 Xrotation Yrotation Zrotation
			JOINT RightLeg
			{
				OFFSET -0.023144 -32.555092 0.112900
				CHANNELS 3 Xrotation Yrotation Zrotation
				JOINT RightFoot
				{
					OFFSET 0.023144 -32.638641 -3.012700
					CHANNELS 3 Xrotation Yrotation Zrotation
					JOINT RightToeBase
					{
						OFFSET -0.970200 -13.225400 11.864200
						CHANNELS 3 Xrotation Yrotation Zrotation
						End Site
						{
							OFFSET 0.000000 12.319244 0.000000
						}
					}
					JOINT RFootTongue
					{
						OFFSET -1.142200 -1.059800 6.665200
						CHANNELS 3 Xrotation Yrotation Zrotation
						End Site
						{
							OFFSET 0.000000 12.319243 0.000000
						}
					}
				}
				JOINT RightPantLeg
				{
					OFFSET -0.919482 -16.533978 -2.284800
					CHANNELS 3 Xrotation Yrotation Zrotation
					End Site
					{
						OFFSET -0.350400 24.744419 0.000000
					}
				}
			}
		}
	}
	JOINT Spine
	{
		OFFSET 0.000000 7.722000 1.166200
		CHANNELS 3 Xrotation Yrotation Zrotation
		JOINT Spine1
		{
			OFFSET 0.000000 12.024101 0.248800
			CHANNELS 3 Xrotation Yrotation Zrotation
			JOINT Spine2
			{
				OFFSET 0.000000 11.502998 -0.491200
				CHANNELS 3 Xrotation Yrotation Zrotation
				JOINT Neck
				{
					OFFSET 0.000000 18.430702 -3.123100
					CHANNELS 3 Xrotation Yrotation Zrotation
					JOINT Head
					{
						OFFSET 0.000000 9.051102 1.034000
						CHANNELS 3 Xrotation Yrotation Zrotation
						JOINT HairB
						{
							OFFSET 0.208400 24.786102 24.822300
							CHANNELS 3 Xrotation Yrotation Zrotation
							End Site
							{
								OFFSET 0.000000 32.263779 0.000000
							}
						}
						JOINT HairA
						{
							OFFSET -7.081100 24.428299 23.196600
							CHANNELS 3 Xrotation Yrotation Zrotation
							End Site
							{
								OFFSET 0.000000 32.263779 0.000000
							}
						}
						JOINT Hat
						{
							OFFSET 16.728800 15.048294 -15.439601
							CHANNELS 3 Xrotation Yrotation Zrotation
							End Site
							{
								OFFSET 0.000000 32.263779 0.000000
							}
						}
					}
				}
				JOINT LeftShoulder
				{
					OFFSET 6.197800 13.665199 -4.064700
					CHANNELS 3 Xrotation Yrotation Zrotation
					JOINT LeftArm
					{
						OFFSET 7.778100 -0.187103 -1.709300
						CHANNELS 3 Xrotation Yrotation Zrotation
						JOINT LeftForeArm
						{
							OFFSET 22.049376 0.000000 0.000000
							CHANNELS 3 Xrotation Yrotation Zrotation
							JOINT LeftHand
							{
								OFFSET 23.009392 0.000000 0.000000
								CHANNELS 3 Xrotation Yrotation Zrotation
								JOINT LeftHandThumb1
								{
									OFFSET 3.507191 -2.063065 3.133727
									CHANNELS 3 Xrotation Yrotation Zrotation
									JOINT LeftHandThumb2
									{
										OFFSET 3.101337 -1.790558 1.790558
										CHANNELS 3 Xrotation Yrotation Zrotation
										JOINT LeftHandThumb3
										{
											OFFSET 3.058640 -1.765907 1.765906
											CHANNELS 3 Xrotation Yrotation Zrotation
											End Site
											{
												OFFSET -0.415260 3.926476 -0.049563
											}
										}
									}
								}
								JOINT LeftHandIndex1
								{
									OFFSET 11.334419 -0.901459 3.706815
									CHANNELS 3 Xrotation Yrotation Zrotation
									JOINT LeftHandIndex2
									{
										OFFSET 3.283112 0.000000 0.000000
										CHANNELS 3 Xrotation Yrotation Zrotation
										JOINT LeftHandIndex3
										{
											OFFSET 3.323853 0.000000 0.000000
											CHANNELS 3 Xrotation Yrotation Zrotation
											End Site
											{
												OFFSET -1.135597 3.097809 0.402452
											}
										}
									}
								}
								JOINT LeftHandMiddle1
								{
									OFFSET 11.335861 0.000000 0.000000
									CHANNELS 3 Xrotation Yrotation Zrotation
									JOINT LeftHandMiddle2
									{
										OFFSET 3.410492 0.000000 0.000000
										CHANNELS 3 Xrotation Yrotation Zrotation
										JOINT LeftHandMiddle3
										{
											OFFSET 3.312172 0.000000 0.000000
											CHANNELS 3 Xrotation Yrotation Zrotation
											End Site
											{
												OFFSET -1.150200 3.080154 0.400270
											}
										}
									}
								}
								JOINT LeftHandRing1
								{
									OFFSET 11.514786 -0.013176 -3.003090
									CHANNELS 3 Xrotation Yrotation Zrotation
									JOINT LeftHandRing2
									{
										OFFSET 3.053307 0.000000 0.000000
										CHANNELS 3 Xrotation Yrotation Zrotation
										JOINT LeftHandRing3
										{
											OFFSET 3.295807 0.000000 0.000000
											CHANNELS 3 Xrotation Yrotation Zrotation
											End Site
											{
												OFFSET -1.281006 3.013344 0.375733
											}
										}
									}
								}
								JOINT LeftHandPinky1
								{
									OFFSET 10.518692 -0.960396 -5.730441
									CHANNELS 3 Xrotation Yrotation Zrotation
									JOINT LeftHandPinky2
									{
										OFFSET 2.861649 0.000000 0.000000
										CHANNELS 3 Xrotation Yrotation Zrotation
										JOINT LeftHandPinky3
										{
											OFFSET 2.863380 0.000000 0.000000
											CHANNELS 3 Xrotation Yrotation Zrotation
											End Site
											{
												OFFSET -0.843597 2.711159 0.369971
											}
										}
									}
								}
							}
							JOINT LSleeve
							{
								OFFSET 6.676277 -0.344902 -1.011730
								CHANNELS 3 Xrotation Yrotation Zrotation
								End Site
								{
									OFFSET 0.000000 14.885353 0.000000
								}
							}
						}
					}
				}
				JOINT RightShoulder
				{
					OFFSET -6.197800 13.665199 -4.064700
					CHANNELS 3 Xrotation Yrotation Zrotation
					JOINT RightArm
					{
						OFFSET -7.778100 -0.187103 -1.709300
						CHANNELS 3 Xrotation Yrotation Zrotation
						JOINT RightForeArm
						{
							OFFSET -22.049376 0.000000 0.000000
							CHANNELS 3 Xrotation Yrotation Zrotation
							JOINT RightHand
							{
								OFFSET -23.009392 0.000000 0.000000
								CHANNELS 3 Xrotation Yrotation Zrotation
								JOINT RightHandThumb1
								{
									OFFSET -3.507191 -2.063065 3.133727
									CHANNELS 3 Xrotation Yrotation Zrotation
									JOINT RightHandThumb2
									{
										OFFSET -3.101337 -1.790558 1.790558
										CHANNELS 3 Xrotation Yrotation Zrotation
										JOINT RightHandThumb3
										{
											OFFSET -3.058640 -1.765907 1.765906
											CHANNELS 3 Xrotation Yrotation Zrotation
											End Site
											{
												OFFSET 0.415260 3.926476 -0.049563
											}
										}
									}
								}
								JOINT RightHandIndex1
								{
									OFFSET -11.334419 -0.901459 3.706815
									CHANNELS 3 Xrotation Yrotation Zrotation
									JOINT RightHandIndex2
									{
										OFFSET -3.283112 0.000000 0.000000
										CHANNELS 3 Xrotation Yrotation Zrotation
										JOINT RightHandIndex3
										{
											OFFSET -3.323853 0.000000 0.000000
											CHANNELS 3 Xrotation Yrotation Zrotation
											End Site
											{
												OFFSET 1.135597 3.097809 0.402452
											}
										}
									}
								}
								JOINT RightHandMiddle1
								{
									OFFSET -11.335861 0.000000 0.000000
									CHANNELS 3 Xrotation Yrotation Zrotation
									JOINT RightHandMiddle2
									{
										OFFSET -3.410492 0.000000 0.000000
										CHANNELS 3 Xrotation Yrotation Zrotation
										JOINT RightHandMiddle3
										{
											OFFSET -3.312172 0.000000 0.000000
											CHANNELS 3 Xrotation Yrotation Zrotation
											End Site
											{
												OFFSET 1.150200 3.080154 0.400270
											}
										}
									}
								}
								JOINT RightHandRing1
								{
									OFFSET -11.514786 -0.013176 -3.003090
									CHANNELS 3 Xrotation Yrotation Zrotation
									JOINT RightHandRing2
									{
										OFFSET -3.053307 0.000000 0.000000
										CHANNELS 3 Xrotation Yrotation Zrotation
										JOINT RightHandRing3
										{
											OFFSET -3.295807 0.000000 0.000000
											CHANNELS 3 Xrotation Yrotation Zrotation
											End Site
											{
												OFFSET 1.281006 3.013344 0.375733
											}
										}
									}
								}
								JOINT RightHandPinky1
								{
									OFFSET -10.518692 -0.960396 -5.730441
									CHANNELS 3 Xrotation Yrotation Zrotation
									JOINT RightHandPinky2
									{
										OFFSET -2.861649 0.000000 0.000000
										CHANNELS 3 Xrotation Yrotation Zrotation
										JOINT RightHandPinky3
										{
											OFFSET -2.863380 0.000000 0.000000
											CHANNELS 3 Xrotation Yrotation Zrotation
											End Site
											{
												OFFSET 0.843597 2.711159 0.369971
											}
										}
									}
								}
							}
							JOINT RSleeve
							{
								OFFSET -6.676277 -0.344902 -1.011730
								CHANNELS 3 Xrotation Yrotation Zrotation
								End Site
								{
									OFFSET 0.000000 14.885353 0.000000
								}
							}
						}
					}
				}
				JOINT Backpack
				{
					OFFSET 0.000000 -2.471497 36.677502
					CHANNELS 3 Xrotation Yrotation Zrotation
					End Site
					{
						OFFSET 0.000000 20.427315 0.000000
					}
				}
				JOINT Hood
				{
					OFFSET 0.000000 18.754097 -10.431000
					CHANNELS 3 Xrotation Yrotation Zrotation
					JOINT Hood1
					{
						OFFSET 0.000000 -5.011002 -7.685901
						CHANNELS 3 Xrotation Yrotation Zrotation
						End Site
						{
							OFFSET 0.000000 9.175140 0.000000
						}
					}
				}
				JOINT LHoodieString
				{
					OFFSET 5.250500 16.397697 3.089900
					CHANNELS 3 Xrotation Yrotation Zrotation
					JOINT LHoodieString1
					{
						OFFSET 0.257700 -6.364304 3.694600
						CHANNELS 3 Xrotation Yrotation Zrotation
						JOINT LHoodieString2
						{
							OFFSET 0.000000 -9.643799 2.679100
							CHANNELS 3 Xrotation Yrotation Zrotation
							End Site
							{
								OFFSET 0.000000 10.009018 0.000000
							}
						}
					}
				}
				JOINT RHoodieString
				{
					OFFSET -5.250500 16.397697 3.089900
					CHANNELS 3 Xrotation Yrotation Zrotation
					JOINT RHoodieString1
					{
						OFFSET -0.257700 -6.364304 3.694600
						CHANNELS 3 Xrotation Yrotation Zrotation
						JOINT RHoodieString2
						{
							OFFSET 0.000000 -9.643799 2.679100
							CHANNELS 3 Xrotation Yrotation Zrotation
							End Site
							{
								OFFSET 0.000000 10.009018 0.000000
							}
						}
					}
				}
			}
			JOINT LBackpack_Strap
			{
				OFFSET 15.223200 -7.719803 -6.610900
				CHANNELS 3 Xrotation Yrotation Zrotation
				End Site
				{
					OFFSET 0.000000 16.040596 0.000000
				}
			}
			JOINT RBackpack_Strap
			{
				OFFSET -15.223000 -7.719803 -6.610900
				CHANNELS 3 Xrotation Yrotation Zrotation
				End Site
				{
					OFFSET 0.000000 16.040596 0.000000
				}
			}
		}
	}
	JOINT BoyFacialAnim_Joint
	{
		OFFSET 1.000000 -82.208099 -1.550900
		CHANNELS 3 Xrotation Yrotation Zrotation
		End Site
		{
			OFFSET 0.000000 30.012791 0.000000
		}
	}
}
MOTION
Frames: 4
Frame Time: 0.016667
3.611715 77.238449 -0.067805 -62.844454 -92.811725 -63.303566 0.000000 -0.000000 0.000000 -32.222626 33.964523 35.697475 28.284939 -8.530210 1.117936 -3.969607 5.814107 -16.560543 0.000000 0.000000 0.000000 0.000000 0.000000 0.000000 -0.000001 0.000004 -0.000001 -29.340174 -13.657844 -20.488394 14.333685 10.197591 -3.485732 5.563460 14.014751 18.731696 0.000000 0.000000 0.000000 0.000000 0.000000 0.000000 -0.000000 -0.000000 -0.000001 5.386290 -2.310796 -8.006819 2.771440 -0.553951 -1.077815 2.777686 -0.510267 -1.087489 -12.273406 6.004527 4.761555 20.231357 76.958023 -25.708584 0.000001 -0.000001 -0.000000 0.000001 -0.000001 -0.000000 0.000001 -0.000001 -0.000000 5.516885 -2.188421 12.208352 -41.899365 5.599310 2.227377 0.045084 -12.980539 -0.290004 -49.394152 -3.550613 -0.088059 40.109948 -15.297190 -0.360454 5.639947 28.097733 11.338728 0.000001 0.000001 -0.000000 6.882271 2.840026 -61.140493 8.247973 7.640069 -89.897932 0.000001 -0.000000 -0.000004 -2.345537 4.688855 -62.655265 8.754189 9.897083 -87.051246 -0.000003 0.000000 -0.000002 -9.042480 10.045618 -60.766192 8.524024 9.508874 -66.892912 -0.000001 -0.000001 -0.000000 -17.946776 14.755017 -51.485942 8.868356 8.667000 -84.811982 -0.000001 -0.000000 0.000003 -0.000002 0.000000 0.000001 -2.478558 1.878755 -16.638409 -51.925881 54.163772 47.616613 1.362550 130.520339 0.246833 -70.593345 -0.218335 -24.603895 0.277490 -1.521509 -1.570511 7.169043 -41.689637 -15.773506 0.000001 0.000002 -0.000003 6.412843 -12.738392 14.389576 9.941760 -7.465171 101.743229 -0.000000 0.000000 0.000000 2.653202 -11.302336 44.730933 9.916107 -9.880660 94.351195 -0.000002 -0.000000 0.000002 2.140180 -7.454465 61.765011 9.609240 -8.992484 89.388707 0.000002 0.000003 0.000001 -4.886629 -23.798122 68.396189 13.518323 -7.949268 112.864949 -0.000000 -0.000002 0.000003 0.000000 -0.000000 0.000000 -0.000001 0.000000 -0.000001 -0.000001 0.000000 -0.000001 -0.000001 0.000000 -0.000001 -0.000001 0.000000 -0.000001 -0.000001 0.000000 -0.000000 -0.000001 0.000000 -0.000000 -0.000001 0.000000 -0.000001 -0.000001 0.000000 -0.000000 -0.000001 0.000000 -0.000000 0.000000 0.000000 -0.000001 0.000000 0.000000 -0.000001 0.000000 -0.000000 0.000000 
3.612192 77.240776 -0.067859 -62.826409 -92.806234 -63.281505 0.000000 -0.000000 -0.000000 -32.205271 33.969574 35.681858 28.269608 -8.526853 1.125762 -3.961854 5.814407 -16.565203 -0.000000 0.000002 -0.000000 -0.000000 0.000002 -0.000000 -0.000000 -0.000004 -0.000000 -29.327258 -13.657139 -20.494213 14.317512 10.195918 -3.477651 5.571555 14.014641 18.729048 -0.000000 0.000000 0.000000 -0.000000 0.000000 0.000000 -0.000000 -0.000001 0.000001 5.386242 -2.310818 -8.006646 2.771401 -0.556390 -1.077454 2.777603 -0.514375 -1.086861 -12.261161 5.997541 4.760196 20.271042 76.969962 -25.754734 0.000001 0.000000 -0.000000 0.000001 0.000000 -0.000000 0.000001 0.000000 -0.000000 5.518623 -2.184553 12.217436 -41.910212 5.611435 2.220991 0.057258 -13.133518 -0.286648 -49.443353 -3.460266 0.032231 40.109951 -15.297187 -0.360452 5.639944 28.097739 11.338723 -0.000000 -0.000001 0.000002 6.882274 2.840026 -61.140493 8.247977 7.640070 -89.897932 -0.000001 -0.000000 -0.000004 -2.345536 4.688856 -62.655258 8.754185 9.897082 -87.051246 0.000002 0.000000 0.000002 -9.042481 10.045622 -60.766192 8.524025 9.508876 -66.892906 -0.000000 -0.000001 0.000001 -17.946773 14.755017 -51.485942 8.868357 8.666999 -84.811989 -0.000000 0.000000 -0.000004 -0.000000 0.000001 0.000000 -2.479249 1.875584 -16.638723 -51.759959 54.134454 47.334218 -0.786852 130.482704 1.826142 -72.076282 -0.111458 -24.458171 0.277494 -1.521509 -1.570512 7.169045 -41.689637 -15.773509 0.000001 0.000004 -0.000000 6.412851 -12.738392 14.389574 9.941763 -7.465175 101.743236 -0.000001 0.000001 0.000002 2.653206 -11.302336 44.730929 9.916107 -9.880657 94.351202 -0.000000 -0.000002 -0.000000 2.140183 -7.454464 61.765011 9.609239 -8.992484 89.388714 -0.000000 0.000002 -0.000001 -4.886628 -23.798122 68.396189 13.518322 -7.949266 112.864949 -0.000004 0.000001 0.000000 -0.000000 -0.000002 -0.000000 -0.000001 0.000000 0.000000 -0.000001 0.000000 0.000000 -0.000001 0.000000 0.000000 -0.000001 0.000000 0.000000 -0.000001 0.000000 0.000000 -0.000001 0.000000 0.000000 -0.000001 0.000000 0.000000 -0.000001 0.000000 0.000000 -0.000001 0.000000 0.000000 0.000000 -0.000000 -0.000000 0.000000 -0.000000 -0.000000 0.000000 -0.000000 -0.000000 
3.612745 77.243408 -0.067428 -62.850301 -92.799274 -63.301094 -0.000000 -0.000000 0.000000 -32.187813 33.974925 35.664837 28.253603 -8.525890 1.133740 -3.953894 5.814755 -16.568564 -0.000000 -0.000000 -0.000000 -0.000000 -0.000000 -0.000000 -0.000002 -0.000004 0.000001 -29.310688 -13.656661 -20.500955 14.296786 10.191327 -3.469806 5.581067 14.014563 18.727977 -0.000000 -0.000000 -0.000000 -0.000000 -0.000000 -0.000000 -0.000001 0.000001 -0.000002 5.386229 -2.310962 -8.006557 2.771260 -0.563897 -1.076317 2.777361 -0.526629 -1.085022 -12.248463 5.976471 4.762428 20.362331 77.005848 -25.852983 -0.000001 0.000000 -0.000000 -0.000001 0.000000 -0.000000 -0.000001 0.000000 -0.000000 5.523679 -2.173157 12.243789 -41.919282 5.652332 2.202116 0.064104 -13.136962 -0.284908 -49.498606 -3.474582 0.031509 40.109944 -15.297192 -0.360454 5.639947 28.097735 11.338728 0.000001 -0.000001 0.000002 6.882271 2.840026 -61.140486 8.247976 7.640070 -89.897932 0.000001 -0.000001 -0.000005 -2.345539 4.688857 -62.655258 8.754187 9.897082 -87.051246 -0.000000 -0.000003 -0.000000 -9.042483 10.045622 -60.766185 8.524022 9.508874 -66.892912 -0.000001 0.000002 -0.000002 -17.946776 14.755017 -51.485939 8.868358 8.666999 -84.811982 0.000001 -0.000000 0.000003 -0.000002 0.000000 0.000001 -2.480387 1.866605 -16.643230 -51.815820 54.140273 47.365234 -0.772596 130.490163 1.814558 -72.098446 -0.115882 -24.465710 0.277495 -1.521508 -1.570509 7.169044 -41.689631 -15.773502 -0.000002 0.000005 -0.000001 6.412849 -12.738394 14.389574 9.941765 -7.465173 101.743229 -0.000001 -0.000001 0.000002 2.653208 -11.302337 44.730936 9.916108 -9.880658 94.351202 0.000002 0.000000 0.000005 2.140183 -7.454464 61.765011 9.609242 -8.992484 89.388707 -0.000001 0.000001 -0.000001 -4.886628 -23.798122 68.396189 13.518324 -7.949269 112.864949 0.000001 0.000000 -0.000002 -0.000000 -0.000001 -0.000000 0.000001 -0.000000 0.000000 0.000001 -0.000000 0.000000 0.000001 -0.000000 0.000000 0.000001 -0.000000 0.000000 0.000001 -0.000000 0.000000 0.000001 -0.000000 0.000000 0.000001 -0.000000 0.000000 0.000001 -0.000000 0.000000 0.000001 -0.000000 0.000000 -0.000001 -0.000000 -0.000001 -0.000001 -0.000000 -0.000001 -0.000000 -0.000000 0.000000 
3.613362 77.246239 -0.066461 -62.925542 -92.790510 -63.371492 -0.000000 0.000000 -0.000000 -32.171304 33.981158 35.647201 28.237523 -8.528453 1.141635 -3.945770 5.814800 -16.570285 0.000000 0.000002 0.000000 0.000000 0.000002 0.000000 -0.000001 0.000001 0.000001 -29.291703 -13.655760 -20.508949 14.274076 10.183602 -3.462259 5.590931 14.014438 18.728092 -0.000000 -0.000000 0.000000 -0.000000 -0.000000 0.000000 0.000000 -0.000001 -0.000001 5.389983 -2.310305 -8.001689 2.770427 -0.576446 -1.075723 2.777964 -0.546931 -1.081946 -12.234885 5.943170 4.765605 20.501272 77.063693 -25.999405 -0.000001 -0.000000 -0.000000 -0.000001 -0.000000 -0.000000 -0.000001 -0.000000 -0.000000 5.535943 -2.153907 12.285025 -41.932058 5.710397 2.170939 0.070661 -13.142515 -0.283211 -49.551875 -3.487771 0.031477 40.109951 -15.297192 -0.360454 5.639949 28.097740 11.338727 0.000002 -0.000001 0.000002 6.882275 2.840026 -61.140493 8.247978 7.640069 -89.897932 0.000000 0.000001 -0.000005 -2.345538 4.688852 -62.655265 8.754189 9.897080 -87.051246 -0.000001 -0.000003 0.000003 -9.042479 10.045618 -60.766192 8.524025 9.508876 -66.892906 -0.000000 0.000000 -0.000000 -17.946769 14.755013 -51.485939 8.868359 8.666998 -84.811982 -0.000001 -0.000000 0.000005 0.000001 -0.000001 0.000000 -2.482173 1.852227 -16.650710 -51.874850 54.138729 47.397230 -0.753166 130.499206 1.799619 -72.124120 -0.115280 -24.456495 0.277496 -1.521508 -1.570510 7.169048 -41.689641 -15.773499 -0.000001 -0.000002 -0.000002 6.412848 -12.738391 14.389576 9.941762 -7.465172 101.743236 -0.000002 0.000000 0.000004 2.653209 -11.302337 44.730936 9.916106 -9.880658 94.351202 0.000003 0.000003 -0.000003 2.140186 -7.454465 61.765011 9.609241 -8.992484 89.388707 -0.000000 -0.000002 0.000002 -4.886628 -23.798122 68.396189 13.518324 -7.949270 112.864949 -0.000001 0.000001 0.000002 -0.000000 -0.000001 -0.000000 -0.000000 -0.000000 0.000000 -0.000000 -0.000000 0.000000 -0.000000 -0.000000 0.000000 -0.000000 -0.000000 0.000000 -0.000000 -0.000000 0.000000 0.000000 -0.000000 -0.000001 -0.000000 -0.000000 0.000000 -0.000000 -0.000000 0.000000 0.000000 -0.000000 -0.000001 0.000001 -0.000000 -0.000001 0.000001 -0.000000 -0.000001 -0.000000 0.000000 -0.000000 
